<?xml version="1.0" encoding="utf-8"?>
<!-- Svg Vector Icons : http://www.onlinewebfonts.com/icon -->
<!DOCTYPE svg PUBLIC "-//W3C//DTD SVG 1.1//EN" "http://www.w3.org/Graphics/SVG/1.1/DTD/svg11.dtd">
<svg version="1.1" xmlns="http://www.w3.org/2000/svg" xmlns:xlink="http://www.w3.org/1999/xlink" x="0px" y="0px" viewBox="0 0 256 256" enable-background="new 0 0 256 256" xml:space="preserve">
<metadata> Svg Vector Icons : http://www.onlinewebfonts.com/icon </metadata>
<g><g><path fill="#000000" d="M32,80.4c-2.8,2.4-5.9,3.5-9.4,3.1c-3.5-0.3-6.4-1.9-8.9-4.7c-2.4-2.4-3.5-5.6-3.1-9.4c0.3-3.8,1.9-7,4.7-9.4c8.3-7,15.2-12.2,20.6-15.7c5.4-3.5,13.1-7,23.2-10.4c10.1-3.5,21.3-3.8,33.6-1c12.3,2.8,26.2,8.5,41.4,17.2c15.3,8.7,28.8,13.3,40.4,13.8c11.7,0.5,20.3-0.9,26.1-4.2c5.7-3.3,13.5-9.1,23.2-17.5c6.6-5.2,12.7-4.7,18.3,1.6c5.6,7,5,13.2-1.6,18.8c-21.2,19.1-41.5,28.7-61,28.7c-17.4,0-36.7-6.1-57.9-18.3c-11.8-6.6-22.2-11.1-31-13.6c-8.9-2.4-17-2.4-24.3,0c-7.3,2.4-13,5-17,7.6C45.5,69.7,39.7,74.2,32,80.4L32,80.4 M223.9,109.1c6.6-5.6,12.7-5,18.3,1.6c5.6,7,5,13.2-1.6,18.8c-7,5.9-12.6,10.5-17,13.8c-4.3,3.3-10.6,6.6-18.8,9.9c-8.2,3.3-16.6,5-25.3,5c-16.7,0-36-6.1-57.9-18.3c-11.8-6.6-22.2-11.1-31-13.6c-8.9-2.4-17-2.4-24.3,0c-7.3,2.4-13,5-17,7.6c-4,2.6-9.8,7-17.5,13.3c-2.4,2.4-5.5,3.5-9.1,3.1c-3.7-0.3-6.7-1.9-9.1-4.7c-5.6-7-5-13.2,1.6-18.8c6.6-5.9,11.8-10.3,15.7-13c3.8-2.8,9.8-6.1,18-9.9c8.2-3.8,15.8-5.8,23-6c7.1-0.2,16.3,1.1,27.4,3.9c11.1,2.8,22.8,7.7,34.9,14.6c11.8,6.6,22.2,11.1,31,13.6c8.9,2.4,17,2.4,24.3,0c7.3-2.4,13-5,17-7.6C210.5,119.8,216.3,115.4,223.9,109.1L223.9,109.1 M223.9,175.9c6.6-5.6,12.7-5,18.3,1.6c2.4,2.4,3.5,5.6,3.1,9.4s-1.9,7-4.7,9.4c-7,5.9-12.6,10.5-17,13.8c-4.3,3.3-10.6,6.6-18.8,9.9s-16.6,5-25.3,5c-16.7,0-36-6.1-57.9-18.3c-11.8-6.6-22.2-11.1-31-13.6c-8.9-2.4-17-2.5-24.3-0.3c-7.3,2.3-13,4.8-17.2,7.6c-4.2,2.8-9.9,7.3-17.2,13.6c-2.4,2.4-5.5,3.5-9.1,3.1c-3.7-0.3-6.7-1.9-9.1-4.7c-5.6-7-5-13.2,1.6-18.8c6.6-5.9,11.8-10.3,15.7-13c3.8-2.8,9.8-6.1,18-9.9c8.2-3.8,15.8-5.8,23-6c7.1-0.2,16.3,1.1,27.4,3.9c11.1,2.8,22.8,7.7,34.9,14.6c11.8,6.6,22.2,11.1,31,13.6s17,2.4,24.3,0c7.3-2.4,13-5,17-7.6C210.5,186.5,216.3,182.1,223.9,175.9L223.9,175.9"/></g></g>
</svg>